<svg width="24" height="24" viewBox="0 0 24 24" fill="none" xmlns="http://www.w3.org/2000/svg">
  <path d="M5.16992 14.1726C5.16992 14.4284 5.26934 14.6846 5.46484 14.8796L11.1211 20.5359C11.5121 20.9269 12.1452 20.9269 12.5352 20.5359L18.1914 14.8796C18.5824 14.4886 18.5824 13.8555 18.1914 13.4655L18.1055 13.3796C17.7145 12.9886 17.0814 12.9886 16.6914 13.3796L12.8281 17.2429L12.8281 4.17257C12.8281 3.62057 12.3801 3.17257 11.8281 3.17257C11.2761 3.17257 10.8281 3.62057 10.8281 4.17257L10.8281 17.2429L6.96484 13.3796C6.57384 12.9886 5.94078 12.9886 5.55078 13.3796L5.46484 13.4655C5.26934 13.661 5.16992 13.9167 5.16992 14.1726Z" fill="#332C29"/>
</svg>
