<svg width="24" height="24" viewBox="0 0 24 24" fill="none" xmlns="http://www.w3.org/2000/svg">
  <path d="M10.0003 5.3418C9.74441 5.3418 9.48825 5.44122 9.29325 5.63672L3.637 11.293C3.246 11.684 3.246 12.317 3.637 12.707L9.29325 18.3633C9.68425 18.7543 10.3173 18.7543 10.7073 18.3633L10.7933 18.2773C11.1843 17.8863 11.1843 17.2533 10.7933 16.8633L6.92997 13H20.0003C20.5523 13 21.0003 12.552 21.0003 12C21.0003 11.448 20.5523 11 20.0003 11H6.92997L10.7933 7.13672C11.1843 6.74572 11.1843 6.11266 10.7933 5.72266L10.7073 5.63672C10.5118 5.44122 10.2562 5.3418 10.0003 5.3418Z" fill="#332C29"/>
</svg>
