<svg width="24" height="24" viewBox="0 0 24 24" fill="none" xmlns="http://www.w3.org/2000/svg">
  <path d="M5.99105 4.99018C5.79212 4.99023 5.59772 5.04961 5.43271 5.16073C5.2677 5.27184 5.13958 5.42964 5.06472 5.61395C4.98986 5.79826 4.97167 6.00071 5.01248 6.19542C5.05328 6.39012 5.15122 6.56823 5.29379 6.70698L10.5868 11.9999L5.29379 17.2929C5.19781 17.3851 5.12119 17.4954 5.0684 17.6176C5.01562 17.7397 4.98773 17.8711 4.98638 18.0042C4.98503 18.1372 5.01023 18.2692 5.06052 18.3924C5.11081 18.5155 5.18517 18.6274 5.27925 18.7215C5.37333 18.8156 5.48523 18.89 5.60841 18.9402C5.73159 18.9905 5.86356 19.0157 5.9966 19.0144C6.12964 19.013 6.26108 18.9851 6.38321 18.9324C6.50533 18.8796 6.6157 18.803 6.70785 18.707L12.0008 13.414L17.2938 18.707C17.3859 18.803 17.4963 18.8796 17.6184 18.9324C17.7406 18.9851 17.872 19.013 18.005 19.0144C18.1381 19.0157 18.27 18.9905 18.3932 18.9402C18.5164 18.89 18.6283 18.8156 18.7224 18.7215C18.8165 18.6274 18.8908 18.5155 18.9411 18.3924C18.9914 18.2692 19.0166 18.1372 19.0153 18.0042C19.0139 17.8711 18.986 17.7397 18.9332 17.6176C18.8804 17.4954 18.8038 17.3851 18.7078 17.2929L13.4149 11.9999L18.7078 6.70698C18.8524 6.56652 18.951 6.38567 18.991 6.18815C19.031 5.99063 19.0103 5.78565 18.9318 5.60007C18.8532 5.41448 18.7205 5.25695 18.5509 5.14812C18.3812 5.03929 18.1827 4.98424 17.9813 4.99018C17.7215 4.99792 17.4749 5.1065 17.2938 5.29292L12.0008 10.5859L6.70785 5.29292C6.61466 5.19712 6.50321 5.12098 6.3801 5.06898C6.25698 5.01698 6.1247 4.99019 5.99105 4.99018Z" fill="#332C29"/>
</svg>
