<svg width="71" height="70" viewBox="0 0 71 70" fill="none" xmlns="http://www.w3.org/2000/svg">
  <g clip-path="url(#clip0_2706_237)">
    <path d="M31.5711 1.24323C15.4385 2.99679 2.46216 15.9731 0.708608 31.755C-1.04494 48.2384 8.42424 62.9683 22.8034 68.5796C23.8555 68.9304 24.9076 68.2289 24.9076 66.8261V61.2147C24.9076 61.2147 23.5048 61.5654 21.7512 61.5654C16.8413 61.5654 14.737 57.3569 14.3863 54.9019C14.0356 53.4991 13.3342 52.447 12.2821 51.3948C11.2299 51.0441 10.8792 51.0441 10.8792 50.6934C10.8792 49.992 11.9313 49.992 12.2821 49.992C14.3863 49.992 16.1399 52.447 16.8413 53.4991C18.5948 56.3048 20.6991 57.0062 21.7512 57.0062C23.1541 57.0062 24.2062 56.6555 24.9076 56.3048C25.2583 53.8498 26.3105 51.3948 28.4147 49.992C20.3484 48.2384 14.3863 43.6792 14.3863 35.9636C14.3863 32.1058 16.1399 28.2479 18.5948 25.4423C18.2441 24.7408 17.8934 22.9873 17.8934 20.5323C17.8934 19.1295 17.8934 17.3759 18.5948 15.9731C18.5948 15.2717 19.2963 14.9209 19.647 14.9209H19.9977C21.7512 15.2717 25.2583 16.3238 28.4147 19.4802C30.519 18.7788 32.974 18.428 35.429 18.428C37.8839 18.428 40.3389 18.7788 42.4432 19.4802C45.5996 16.3238 49.4574 15.2717 51.2109 14.9209H51.5616C52.2631 14.9209 52.6138 15.2717 52.9645 15.9731C52.9645 17.3759 52.9645 19.1295 52.9645 20.5323C52.9645 23.338 52.6138 24.7408 52.2631 25.4423C54.718 28.2479 56.4716 31.755 56.4716 35.9636C56.4716 43.6792 50.5095 48.2384 42.4432 49.992C44.5474 51.7455 45.9503 54.9019 45.9503 58.0583V67.1768C45.9503 68.2289 47.0024 69.2811 48.4052 68.9304C61.3815 63.6697 70.5 51.0441 70.5 36.3143C70.5 15.2717 52.6138 -1.21174 31.5711 1.24323Z" fill="white" fill-opacity="0.5"/>
  </g>
  <defs>
    <clipPath id="clip0_2706_237">
      <rect width="70" height="70" fill="white" transform="translate(0.5)"/>
    </clipPath>
  </defs>
</svg>
