<svg width="382" height="51" viewBox="0 0 382 51" fill="none" xmlns="http://www.w3.org/2000/svg">
  <path d="M378.835 22.2133C378.615 22.5653 378.384 22.8183 378.142 22.9723C377.9 23.1043 377.592 23.1703 377.218 23.1703C376.822 23.1703 376.393 23.0603 375.931 22.8403C375.491 22.6203 374.974 22.3783 374.38 22.1143C373.786 21.8283 373.104 21.5753 372.334 21.3553C371.586 21.1353 370.695 21.0253 369.661 21.0253C368.055 21.0253 366.79 21.3663 365.866 22.0483C364.942 22.7303 364.48 23.6213 364.48 24.7213C364.48 25.4473 364.711 26.0633 365.173 26.5693C365.657 27.0533 366.284 27.4823 367.054 27.8563C367.846 28.2303 368.737 28.5713 369.727 28.8793C370.717 29.1653 371.729 29.4843 372.763 29.8363C373.797 30.1883 374.809 30.5953 375.799 31.0573C376.789 31.4973 377.669 32.0693 378.439 32.7733C379.231 33.4553 379.858 34.2803 380.32 35.2483C380.804 36.2163 381.046 37.3823 381.046 38.7463C381.046 40.3743 380.749 41.8813 380.155 43.2673C379.561 44.6313 378.692 45.8193 377.548 46.8313C376.404 47.8213 374.985 48.6023 373.291 49.1743C371.619 49.7243 369.694 49.9993 367.516 49.9993C366.35 49.9993 365.206 49.8893 364.084 49.6693C362.984 49.4713 361.917 49.1853 360.883 48.8113C359.871 48.4373 358.925 47.9973 358.045 47.4913C357.187 46.9853 356.428 46.4353 355.768 45.8413L357.649 42.7393C357.891 42.3653 358.177 42.0793 358.507 41.8813C358.837 41.6833 359.255 41.5843 359.761 41.5843C360.267 41.5843 360.74 41.7273 361.18 42.0133C361.642 42.2993 362.17 42.6073 362.764 42.9373C363.358 43.2673 364.051 43.5753 364.843 43.8613C365.657 44.1473 366.68 44.2903 367.912 44.2903C368.88 44.2903 369.705 44.1803 370.387 43.9603C371.091 43.7183 371.663 43.4103 372.103 43.0363C372.565 42.6623 372.895 42.2333 373.093 41.7493C373.313 41.2433 373.423 40.7263 373.423 40.1983C373.423 39.4063 373.181 38.7573 372.697 38.2513C372.235 37.7453 371.608 37.3053 370.816 36.9313C370.046 36.5573 369.155 36.2273 368.143 35.9413C367.153 35.6333 366.13 35.3033 365.074 34.9513C364.04 34.5993 363.017 34.1923 362.005 33.7303C361.015 33.2463 360.124 32.6413 359.332 31.9153C358.562 31.1893 357.935 30.2983 357.451 29.2423C356.989 28.1863 356.758 26.9103 356.758 25.4143C356.758 24.0283 357.033 22.7083 357.583 21.4543C358.133 20.2003 358.936 19.1113 359.992 18.1873C361.07 17.2413 362.401 16.4933 363.985 15.9433C365.591 15.3713 367.439 15.0853 369.529 15.0853C371.861 15.0853 373.984 15.4703 375.898 16.2403C377.812 17.0103 379.407 18.0223 380.683 19.2763L378.835 22.2133Z" fill="#332941"/>
  <path d="M217.551 21.9692C217.373 22.2799 217.174 22.5019 216.952 22.6351C216.73 22.7683 216.452 22.8349 216.119 22.8349C215.742 22.8349 215.332 22.7239 214.888 22.5019C214.444 22.2578 213.922 21.9915 213.323 21.7029C212.724 21.4144 212.013 21.1592 211.192 20.9372C210.393 20.6931 209.45 20.5709 208.363 20.5709C207.475 20.5709 206.665 20.682 205.932 20.9039C205.222 21.1037 204.612 21.4032 204.101 21.8027C203.613 22.18 203.236 22.6351 202.969 23.1678C202.703 23.6782 202.57 24.2331 202.57 24.8324C202.57 25.6314 202.814 26.2971 203.302 26.8298C203.79 27.3624 204.434 27.8286 205.233 28.2281C206.032 28.6054 206.942 28.9494 207.963 29.2602C208.984 29.5709 210.027 29.9038 211.092 30.2589C212.158 30.614 213.201 31.0246 214.222 31.4907C215.243 31.9568 216.153 32.5338 216.952 33.2219C217.751 33.8877 218.394 34.7089 218.883 35.6855C219.371 36.6398 219.615 37.8049 219.615 39.181C219.615 40.779 219.327 42.255 218.75 43.6089C218.172 44.9628 217.329 46.1391 216.219 47.1378C215.11 48.1366 213.722 48.9134 212.058 49.4682C210.415 50.0231 208.529 50.3004 206.398 50.3004C205.222 50.3004 204.079 50.1895 202.969 49.9675C201.882 49.7678 200.839 49.4904 199.84 49.1353C198.863 48.758 197.942 48.3141 197.077 47.8036C196.233 47.2932 195.479 46.7382 194.813 46.139L196.477 43.4091C196.677 43.0762 196.921 42.821 197.21 42.6434C197.52 42.4437 197.898 42.3438 198.342 42.3438C198.808 42.3438 199.263 42.4992 199.707 42.8099C200.173 43.0984 200.705 43.4201 201.305 43.7752C201.926 44.1304 202.67 44.4634 203.535 44.7741C204.401 45.0626 205.477 45.2069 206.764 45.2069C207.83 45.2069 208.751 45.0847 209.528 44.8406C210.305 44.5743 210.948 44.2191 211.459 43.7752C211.969 43.3314 212.346 42.832 212.591 42.2771C212.835 41.7001 212.957 41.0898 212.957 40.4462C212.957 39.5806 212.713 38.8704 212.224 38.3155C211.736 37.7606 211.081 37.2834 210.26 36.8839C209.461 36.4844 208.54 36.1293 207.497 35.8186C206.476 35.5079 205.433 35.175 204.367 34.8199C203.302 34.4648 202.248 34.0542 201.205 33.5881C200.184 33.122 199.263 32.5338 198.442 31.8236C197.643 31.0912 196.999 30.2145 196.511 29.1936C196.022 28.1504 195.778 26.8853 195.778 25.3983C195.778 24.0445 196.045 22.7571 196.577 21.5364C197.132 20.3157 197.931 19.2393 198.974 18.3072C200.04 17.375 201.338 16.6426 202.869 16.1099C204.423 15.5551 206.21 15.2775 208.229 15.2775C210.515 15.2775 212.591 15.6438 214.455 16.3763C216.319 17.1087 217.884 18.1074 219.149 19.3725L217.551 21.9692Z" fill="#332941"/>
  <path d="M337.288 14.7812C339.796 14.7812 342.06 15.1919 344.08 16.0131C346.122 16.8343 347.853 17.9996 349.273 19.5089C350.716 21.0181 351.826 22.849 352.602 25.0019C353.379 27.1548 353.768 29.574 353.768 32.2595C353.768 34.945 353.379 37.3643 352.602 39.5172C351.826 41.6701 350.716 43.5121 349.273 45.0435C347.853 46.5527 346.122 47.718 344.08 48.5392C342.06 49.3604 339.796 49.771 337.288 49.771C334.758 49.771 332.472 49.3604 330.43 48.5392C328.41 47.718 326.679 46.5527 325.237 45.0435C323.794 43.5121 322.684 41.6701 321.907 39.5172C321.131 37.3643 320.742 34.945 320.742 32.2595C320.742 29.574 321.131 27.1548 321.907 25.0019C322.684 22.849 323.794 21.0181 325.237 19.5089C326.679 17.9996 328.41 16.8343 330.43 16.0131C332.472 15.1919 334.758 14.7812 337.288 14.7812ZM337.288 44.1779C340.351 44.1779 342.626 43.1571 344.113 41.1152C345.622 39.0511 346.377 36.1103 346.377 32.2929C346.377 28.4754 345.622 25.5347 344.113 23.4706C342.626 21.3843 340.351 20.3412 337.288 20.3412C334.181 20.3412 331.873 21.3843 330.364 23.4706C328.854 25.5347 328.1 28.4754 328.1 32.2929C328.1 36.1103 328.854 39.0511 330.364 41.1152C331.873 43.1571 334.181 44.1779 337.288 44.1779Z" fill="#332941"/>
  <path d="M317.94 15.3135V49.2711H310.782V15.3135H317.94Z" fill="#332941"/>
  <path d="M301.234 23.6704C300.236 22.3831 299.137 21.4843 297.938 20.9738C296.74 20.4633 295.442 20.2081 294.043 20.2081C291.247 20.2081 289.061 21.2401 287.485 23.3042C285.909 25.3461 285.121 28.3756 285.121 32.3929C285.121 34.4791 285.299 36.2658 285.654 37.7528C286.009 39.2177 286.519 40.4162 287.185 41.3483C287.851 42.2805 288.661 42.9574 289.616 43.3791C290.57 43.8008 291.646 44.0117 292.845 44.0117C294.665 44.0117 296.229 43.6233 297.539 42.8465C298.871 42.0475 300.102 40.9266 301.234 39.484V23.6704ZM308.392 0V49.2718H304.064C303.11 49.2718 302.499 48.8168 302.233 47.9068L301.601 44.2114C300.18 45.876 298.56 47.2188 296.74 48.2397C294.942 49.2607 292.845 49.7711 290.448 49.7711C288.539 49.7711 286.808 49.3938 285.254 48.6392C283.701 47.8624 282.369 46.7416 281.259 45.2767C280.15 43.8119 279.284 42.0031 278.663 39.8502C278.063 37.6751 277.764 35.1894 277.764 32.3929C277.764 29.8627 278.097 27.5212 278.762 25.3683C279.45 23.2154 280.427 21.3511 281.692 19.7753C282.957 18.1773 284.489 16.9344 286.286 16.0466C288.106 15.1366 290.137 14.6817 292.379 14.6817C294.376 14.6817 296.074 15.0035 297.472 15.6471C298.871 16.2686 300.125 17.1452 301.234 18.2772V0H308.392Z" fill="#332941"/>
  <path d="M275.204 15.3145V49.272H270.876C269.922 49.272 269.311 48.817 269.045 47.9071L268.512 44.7443C267.802 45.499 267.048 46.187 266.249 46.8084C265.472 47.4299 264.639 47.9625 263.752 48.4064C262.864 48.8503 261.91 49.1943 260.889 49.4385C259.89 49.6826 258.813 49.8047 257.659 49.8047C255.795 49.8047 254.153 49.494 252.732 48.8725C251.312 48.2511 250.113 47.3744 249.137 46.2425C248.182 45.1106 247.461 43.7567 246.973 42.1809C246.484 40.5829 246.24 38.8295 246.24 36.9208V15.3145H253.398V36.9208C253.398 39.2068 253.92 40.9824 254.963 42.2475C256.028 43.5126 257.637 44.1451 259.79 44.1451C261.366 44.1451 262.831 43.79 264.184 43.0798C265.561 42.3473 266.848 41.3486 268.046 40.0835V15.3145H275.204Z" fill="#332941"/>
  <path d="M235.469 49.8039C232.65 49.8039 230.475 49.016 228.944 47.4402C227.434 45.8422 226.68 43.6005 226.68 40.7152V20.94H222.951C222.552 20.94 222.208 20.8179 221.919 20.5738C221.631 20.3074 221.486 19.919 221.486 19.4085V16.5122L226.979 15.7132L228.544 5.89205C228.655 5.51475 228.844 5.21515 229.11 4.99315C229.376 4.74905 229.732 4.62695 230.175 4.62695H233.838V15.7797H243.259V20.94H233.838V40.2159C233.838 41.4366 234.137 42.3687 234.736 43.0124C235.336 43.656 236.135 43.9778 237.133 43.9778C237.688 43.9778 238.165 43.9113 238.565 43.7781C238.964 43.6227 239.309 43.4674 239.597 43.312C239.886 43.1344 240.13 42.9791 240.329 42.8459C240.551 42.6906 240.762 42.6129 240.962 42.6129C241.361 42.6129 241.683 42.8348 241.927 43.2787L244.058 46.7743C242.948 47.7509 241.639 48.5055 240.13 49.0382C238.62 49.5487 237.067 49.8039 235.469 49.8039Z" fill="#332941"/>
  <path d="M173.532 41.6004C173.532 40.3519 173.757 39.1902 174.208 38.1151C174.693 37.0401 175.335 36.1037 176.132 35.3061C176.965 34.5085 177.936 33.8843 179.045 33.4335C180.155 32.948 181.369 32.7052 182.687 32.7052C183.97 32.7052 185.166 32.948 186.276 33.4335C187.386 33.8843 188.357 34.5085 189.189 35.3061C190.021 36.1037 190.663 37.0401 191.114 38.1151C191.599 39.1902 191.842 40.3519 191.842 41.6004C191.842 42.8488 191.599 44.0279 191.114 45.1376C190.663 46.2126 190.021 47.149 189.189 47.9466C188.357 48.7442 187.386 49.3684 186.276 49.8192C185.166 50.2701 183.97 50.4955 182.687 50.4955C181.369 50.4955 180.155 50.2701 179.045 49.8192C177.936 49.3684 176.965 48.7442 176.132 47.9466C175.335 47.149 174.693 46.2126 174.208 45.1376C173.757 44.0279 173.532 42.8488 173.532 41.6004Z" fill="#EE9B00"/>
  <path d="M170.752 46.8717V49.7681H145.018V2.66028H148.447V46.8717H170.752Z" fill="#332941"/>
  <path d="M142.615 47.305V49.7686H118.312V47.305H129.132V9.08616C129.132 8.33156 129.166 7.53257 129.232 6.68917L118.845 15.9109C118.534 16.1772 118.224 16.2771 117.913 16.2105C117.602 16.1439 117.358 16.0108 117.181 15.811L116.215 14.4793L129.831 2.46106H132.328V47.305H142.615Z" fill="#332941"/>
  <path d="M116.563 2.66028L97.1209 49.7681H94.0909L74.6489 2.66028H77.3449C77.6559 2.66028 77.911 2.74908 78.111 2.92658C78.311 3.08198 78.4659 3.29288 78.5769 3.55918L94.624 42.6437C94.801 43.132 94.9789 43.6535 95.1559 44.2084C95.3339 44.7633 95.4999 45.3292 95.6559 45.9063C95.7889 45.3292 95.9329 44.7633 96.0889 44.2084C96.2439 43.6535 96.4209 43.132 96.6209 42.6437L112.635 3.55918C112.723 3.31498 112.879 3.10418 113.101 2.92658C113.323 2.74908 113.589 2.66028 113.9 2.66028H116.563Z" fill="#332941"/>
  <path d="M71.749 46.9383L71.683 49.7681H43.4509V2.66028H71.683V5.49008H46.88V24.533H67.521V27.2962H46.88V46.9383H71.749Z" fill="#332941"/>
  <path d="M40.539 26.1976C40.539 29.8375 39.996 33.1111 38.908 36.0186C37.821 38.9261 36.289 41.4008 34.314 43.4427C32.339 45.4846 29.964 47.0493 27.189 48.1368C24.437 49.2243 21.397 49.7681 18.068 49.7681H0.855957V2.66028H18.068C21.397 2.66028 24.437 3.20408 27.189 4.29158C29.964 5.37908 32.339 6.94378 34.314 8.98568C36.289 11.0276 37.821 13.5023 38.908 16.4098C39.996 19.3173 40.539 22.5799 40.539 26.1976ZM37.011 26.1976C37.011 22.9128 36.556 19.9831 35.646 17.4085C34.736 14.834 33.448 12.6589 31.784 10.8834C30.119 9.10778 28.122 7.75388 25.791 6.82178C23.461 5.88958 20.886 5.42348 18.068 5.42348H4.28496V47.0049H18.068C20.886 47.0049 23.461 46.5388 25.791 45.6066C28.122 44.6745 30.119 43.3206 31.784 41.5451C33.448 39.7695 34.736 37.5944 35.646 35.0199C36.556 32.4453 37.011 29.5045 37.011 26.1976Z" fill="#332941"/>
</svg>
