<svg width="70" height="70" viewBox="0 0 70 70" fill="none" xmlns="http://www.w3.org/2000/svg">
  <g clip-path="url(#clip0_3459_211)">
    <path fill-rule="evenodd" clip-rule="evenodd" d="M8.75 0H61.25C66.0826 0 70 3.91748 70 8.75V61.25C70 66.0826 66.0826 70 61.25 70H8.75C3.91748 70 0 66.0826 0 61.25V8.75C0 3.91748 3.91748 0 8.75 0ZM17.8646 21.1166V23.8729H24.4271L29.4145 51.9604L35.9115 51.501C42.299 43.4073 46.6083 37.3479 48.8396 33.3229C51.1146 29.2542 52.2521 25.8635 52.2521 23.151C52.2521 21.5323 51.7708 20.3073 50.8083 19.476C49.8896 18.6448 48.7302 18.2292 47.3302 18.2292C44.7052 18.2292 42.5177 19.3448 40.7677 21.576C42.474 22.7135 43.6333 23.6541 44.2458 24.3979C44.9021 25.098 45.2302 26.0385 45.2302 27.2198C45.2302 29.1886 44.6396 31.4198 43.4583 33.9135C42.3208 36.4073 41.074 38.6167 39.7177 40.5417C38.8427 41.7667 37.7271 43.276 36.3708 45.0698L32.1052 20.8542C31.7552 19.1041 30.6615 18.2292 28.824 18.2292C27.9927 18.2292 26.3958 18.5792 24.0333 19.2791C21.6708 19.9354 19.6146 20.548 17.8646 21.1166Z" fill="black" fill-opacity="0.5"/>
  </g>
  <defs>
    <clipPath id="clip0_3459_211">
      <rect width="70" height="70" fill="white"/>
    </clipPath>
  </defs>
</svg>
