<svg width="78" height="30" viewBox="0 0 78 30" fill="none" xmlns="http://www.w3.org/2000/svg">
  <path d="M52.7246 23.8307V9.44873H60.8676V10.3327H53.7446V15.7387H60.3576V16.6227H53.7446V22.9467H56.6006C58.4706 22.9467 60.3527 22.9481 60.3527 22.9481V23.8281C60.3527 23.8281 58.4706 23.8307 56.6006 23.8307H52.7246ZM61.0886 15.7387H64.7946V9.44873H65.8146V23.8307H64.7946V16.6227H61.0886V15.7387Z" fill="#EE9B00"/>
  <path d="M36.8359 13.6133C36.8359 11.1313 38.0769 9.27832 41.2559 9.27832C44.4349 9.27832 45.6759 11.1313 45.6759 13.6133V19.6653C45.6759 22.1473 44.4349 24.0003 41.2559 24.0003C38.0769 24.0003 36.8359 22.1473 36.8359 19.6653V13.6133ZM48.9909 23.8303V9.44832H50.0109V23.8303H48.9909ZM41.2559 23.1163C43.7719 23.1163 44.6559 21.6883 44.6559 19.6653V13.6133C44.6559 11.5903 43.7719 10.1623 41.2559 10.1623C38.7399 10.1623 37.8559 11.5903 37.8559 13.6133V19.6653C37.8559 21.6883 38.7399 23.1163 41.2559 23.1163Z" fill="#EE9B00"/>
  <path d="M20.9453 15.5517H27.1503V13.7157H21.1153V9.44873H22.1353V12.8317H34.2903V13.7157H28.1703V15.5517H34.3753V16.4357H20.9453V15.5517ZM21.1153 23.8307V20.3967H33.1853V18.8837H21.1153V17.9997H34.2053V21.2807H22.1353V22.9467H34.3753V23.8307H21.1153Z" fill="#EE9B00"/>
  <path d="M80.5994 15.1267V9.44873H81.6194V16.0107H68.5294V9.44873H69.5494V15.1267H80.5994ZM76.12 23.8307V18.9007H73.82V21.9H72.8V18.8994L71.02 18.9007V23.8307H70V18.9007H68.3594V18.0167H81.7894V18.9007L79.94 18.8994V21.9H78.92V18.9007H77.14V23.8307H76.12Z" fill="#0A9396"/>
  <path d="M73.3118 9.92822C72.4691 9.92822 71.7852 10.6122 71.7852 11.4549V12.9816C71.7852 13.8243 72.4691 14.5082 73.3118 14.5082C74.1545 14.5082 74.8385 13.8243 74.8385 12.9816V11.4549C74.8385 10.6122 74.1545 9.92822 73.3118 9.92822ZM77.4185 11.4549C76.5758 11.4549 75.8918 12.1388 75.8918 12.9816C75.8918 13.8243 76.5758 14.5082 77.4185 14.5082C78.2612 14.5082 78.9452 13.8243 78.9452 12.9816C78.9452 12.1388 78.2612 11.4549 77.4185 11.4549Z" fill="#332941"/>
  <path d="M13.5963 6.61488C14.06 6.95585 14.7102 7.42867 15.042 7.66962C15.3785 7.91512 15.8604 8.26518 16.1195 8.45158C16.3741 8.63797 16.8651 8.99258 17.2061 9.24263C17.5471 9.48813 17.8562 9.73362 17.8926 9.78818C18.0062 9.9473 17.979 10.1883 17.8335 10.3292C17.7198 10.4383 17.6698 10.4519 17.4016 10.4519H17.097V14.3163C17.097 17.6578 17.0879 18.2033 17.0288 18.317C16.9197 18.5261 16.7924 18.5898 16.4741 18.5898H16.1877V21.1402V23.6907L16.0331 23.8452C15.8331 24.0453 15.6558 24.0498 15.4512 23.868L15.3012 23.7361L15.2875 22.9587L15.2694 22.1813H12.5689H9.86836V22.9133C9.86836 23.5134 9.85472 23.6679 9.79107 23.7725C9.64104 24.0271 9.35463 24.068 9.13186 23.868L8.98183 23.7361L8.97274 21.172L8.9591 18.6125H8.54084C8.18168 18.6125 8.08166 18.6352 7.86799 18.7307C7.2997 18.9989 6.89508 19.3944 5.68577 20.8674C4.03091 22.8769 2.84887 23.6861 1.20766 23.9316C0.452975 24.0407 0.184742 24.0135 0.0392609 23.7998C0.0210757 23.7725 0.00289154 23.2451 0.00289154 22.6223V21.4994L0.148373 21.4084C0.239299 21.3539 0.380233 21.3175 0.493891 21.3175C0.775761 21.3175 1.29859 21.1902 1.62137 21.0447C2.23058 20.772 2.87615 20.2219 3.63538 19.3353C3.84906 19.0853 4.2355 18.6352 4.49009 18.3352C4.74468 18.0397 5.04474 17.7032 5.15839 17.5896L5.36752 17.3895V16.2939C5.36752 15.1073 5.3948 14.9027 5.62666 14.4163C5.78124 14.0844 6.21314 13.6571 6.58139 13.4616C6.91781 13.2843 7.36335 13.1797 7.7907 13.1797H8.0953L8.08621 11.8249L8.07257 10.4747L7.74069 10.4519C7.44518 10.4337 7.39063 10.4156 7.29516 10.3019C7.1815 10.1655 7.15422 9.96094 7.23151 9.81546C7.26788 9.74272 11.305 6.774 12.1551 6.18753C12.5961 5.88748 12.6052 5.89203 13.5963 6.61488ZM11.8642 7.47413C11.5278 7.72417 11.0686 8.05605 10.8458 8.22426C10.6185 8.38793 10.1139 8.75618 9.71379 9.04259L8.99547 9.56541L10.7685 9.57905C11.746 9.5836 13.3599 9.5836 14.3556 9.57905L16.165 9.56541L15.8149 9.31537C15.624 9.17898 14.992 8.71981 14.4056 8.29246C12.6734 7.02859 12.6234 6.99222 12.5461 7.01041C12.5098 7.0195 12.2006 7.22863 11.8642 7.47413ZM8.9591 13.1797V15.9075H9.40918H9.85927L9.87745 14.7573C9.89564 13.6525 9.90018 13.598 10.0184 13.257C10.3321 12.3568 11.0322 11.7022 11.9369 11.4748C12.287 11.3839 12.8962 11.3885 13.2508 11.4794C13.9646 11.6658 14.6602 12.225 14.9739 12.866C15.233 13.3979 15.2785 13.6843 15.2785 14.8709V15.9075H15.7331H16.1877V13.1797V10.4519H12.5734H8.9591V13.1797ZM11.8551 12.4205C11.4914 12.5841 11.0959 12.9751 10.9322 13.3297L10.8004 13.6116L10.7867 14.7618L10.7731 15.9075L12.5825 15.8984L14.3919 15.8847L14.4056 15.0209C14.4192 14.0298 14.3737 13.6389 14.1964 13.2797C13.9828 12.8342 13.4872 12.4387 12.9917 12.3114C12.7143 12.2386 12.1415 12.2977 11.8551 12.4205ZM7.01328 14.2299C6.69504 14.389 6.53592 14.5527 6.3768 14.9027C6.27678 15.121 6.26315 15.2255 6.24041 15.8665C6.22223 16.4348 6.23132 16.5894 6.27678 16.5894C6.30861 16.5894 6.43136 16.5303 6.54956 16.4576C6.8678 16.2621 7.15422 16.1484 7.64067 16.0257L8.07257 15.9166L8.08621 15.0028L8.0953 14.089H7.69523C7.33607 14.089 7.25878 14.1026 7.01328 14.2299ZM8.96819 17.235L8.98183 17.7032L12.5825 17.7169L16.1877 17.726V17.2486V16.7712H12.5734H8.95455L8.96819 17.235ZM7.62704 16.9258C6.76778 17.2168 6.11312 17.7578 4.95836 19.1353C3.83088 20.481 3.47626 20.8493 2.84433 21.3266C2.3215 21.7221 1.66684 22.0267 1.1622 22.1131C0.821225 22.1722 0.843958 22.1358 0.85305 22.6223L0.862143 23.0678L1.08036 23.0542C1.62592 23.0269 2.51245 22.6678 3.11256 22.2313C3.75813 21.7631 4.22186 21.2811 5.30842 19.9536C5.97218 19.1399 6.4359 18.6534 6.83598 18.3443C7.16331 18.0942 7.74524 17.7942 7.95891 17.7623C8.06803 17.7487 8.07257 17.7351 8.08621 17.3441C8.09985 16.9167 8.08621 16.8167 8.00438 16.8167C7.97255 16.8167 7.80434 16.8667 7.62704 16.9258ZM9.86836 19.0444V19.499H12.5734H15.2785V19.0444V18.5898H12.5734H9.86836V19.0444ZM9.86836 20.8629V21.3175H12.5734H15.2785V20.8629V20.4083H12.5734H9.86836V20.8629Z" fill="#332941"/>
</svg>
