<svg width="82" height="30" viewBox="0 0 82 30" fill="none" xmlns="http://www.w3.org/2000/svg">
  <path d="M49.9492 22.8921V9.26709H57.6636V10.1046H50.9155V15.226H57.1805V16.0635H50.9155V22.0547H53.6212C55.3928 22.0547 57.1759 22.056 57.1759 22.056V22.8897C57.1759 22.8897 55.3928 22.8921 53.6212 22.8921H49.9492ZM57.873 15.226H61.384V9.26709H62.3503V22.8921H61.384V16.0635H57.873V15.226Z" fill="#FFBC42"/>
  <path d="M34.8965 13.2128C34.8965 10.8614 36.0722 9.10596 39.0839 9.10596C42.0955 9.10596 43.2712 10.8614 43.2712 13.2128V18.9463C43.2712 21.2976 42.0955 23.0531 39.0839 23.0531C36.0722 23.0531 34.8965 21.2976 34.8965 18.9463V13.2128ZM46.4117 22.8921V9.26701H47.3781V22.8921H46.4117ZM39.0839 22.2156C41.4674 22.2156 42.3049 20.8628 42.3049 18.9463V13.2128C42.3049 11.2963 41.4674 9.94343 39.0839 9.94343C36.7003 9.94343 35.8628 11.2963 35.8628 13.2128V18.9463C35.8628 20.8628 36.7003 22.2156 39.0839 22.2156Z" fill="#FFBC42"/>
  <path d="M19.8438 15.0489H25.7222V13.3095H20.0048V9.26709H20.9711V12.472H32.4864V13.3095H26.6885V15.0489H32.5669V15.8864H19.8438V15.0489ZM20.0048 22.8921V19.6389H31.4395V18.2055H20.0048V17.368H32.4059V20.4764H20.9711V22.0547H32.5669V22.8921H20.0048Z" fill="#FFBC42"/>
  <path d="M76.3575 14.6462V9.26709H77.3238V15.4837H64.9228V9.26709H65.8891V14.6462H76.3575ZM72.09 22.8921V18.2216H69.96V21.01H69V18.2204L67.26 18.2216V22.8921H66.29V18.2216H64.7617V17.3841H77.4849V18.2216L75.76 18.2204V21.01H74.8V18.2216H73.06V22.8921H72.09Z" fill="#73D2DE"/>
  <path d="M69.4017 9.66895C68.6032 9.66895 67.9551 10.3171 67.9551 11.1156V12.5623C67.9551 13.3608 68.6032 14.0089 69.4017 14.0089C70.2003 14.0089 70.8484 13.3608 70.8484 12.5623V11.1156C70.8484 10.3171 70.2003 9.66895 69.4017 9.66895ZM73.1884 11.1156C72.3899 11.1156 71.7417 11.7637 71.7417 12.5623C71.7417 13.3608 72.3899 14.0089 73.1884 14.0089C73.987 14.0089 74.6351 13.3608 74.6351 12.5623C74.6351 11.7637 73.987 11.1156 73.1884 11.1156Z" fill="#EEF5FF"/>
  <path d="M12.8789 6.58262C13.3182 6.90565 13.9341 7.35358 14.2485 7.58185C14.5672 7.81442 15.0238 8.14606 15.2693 8.32265C15.5105 8.49924 15.9756 8.83518 16.2987 9.07206C16.6217 9.30464 16.9146 9.53722 16.949 9.5889C17.0567 9.73965 17.0308 9.96792 16.893 10.1014C16.7853 10.2048 16.738 10.2177 16.4839 10.2177H16.1953V13.8787C16.1953 17.0443 16.1867 17.5611 16.1307 17.6688C16.0273 17.8669 15.9067 17.9272 15.6052 17.9272H15.3339V20.3435V22.7597L15.1874 22.9061C14.9979 23.0956 14.83 23.0999 14.6361 22.9277L14.494 22.8028L14.4811 22.0663L14.4639 21.3298H11.9055H9.34712V22.0232C9.34712 22.5917 9.3342 22.7382 9.2739 22.8372C9.13177 23.0784 8.86043 23.1172 8.64939 22.9277L8.50725 22.8028L8.49864 20.3736L8.48572 17.9488H8.08947C7.74922 17.9488 7.65446 17.9703 7.45203 18.0608C6.91366 18.3149 6.53033 18.6896 5.38466 20.085C3.81691 21.9887 2.69708 22.7554 1.14225 22.988C0.427284 23.0913 0.173168 23.0655 0.0353438 22.8631C0.0181157 22.8372 0.000888631 22.3376 0.000888631 21.7475V20.6837L0.138713 20.5976C0.224853 20.5459 0.35837 20.5114 0.466046 20.5114C0.733081 20.5114 1.22839 20.3908 1.53419 20.253C2.11133 19.9946 2.72293 19.4735 3.4422 18.6336C3.64463 18.3967 4.01072 17.9703 4.25192 17.686C4.49311 17.4061 4.77737 17.0874 4.88505 16.9797L5.08317 16.7902V15.7522C5.08317 14.6281 5.10901 14.4343 5.32867 13.9734C5.47511 13.659 5.88428 13.2542 6.23315 13.069C6.55187 12.901 6.97395 12.8019 7.37881 12.8019H7.66738L7.65877 11.5184L7.64585 10.2393L7.33144 10.2177C7.05148 10.2005 6.9998 10.1833 6.90935 10.0756C6.80167 9.94638 6.77583 9.75257 6.84905 9.61475C6.88351 9.54583 10.7081 6.73337 11.5136 6.17777C11.9313 5.89351 11.9399 5.89781 12.8789 6.58262ZM11.2379 7.39665C10.9192 7.63353 10.4842 7.94794 10.2731 8.1073C10.0578 8.26235 9.5797 8.61122 9.20068 8.88256L8.52017 9.37786L10.1999 9.39078C11.1259 9.39509 12.6549 9.39509 13.5982 9.39078L15.3123 9.37786L14.9807 9.14098C14.7998 9.01177 14.2011 8.57676 13.6455 8.1719C12.0046 6.97456 11.9572 6.9401 11.884 6.95733C11.8495 6.96595 11.5566 7.16407 11.2379 7.39665ZM8.48572 12.8019V15.3861H8.91211H9.33851L9.35574 14.2964C9.37296 13.2498 9.37727 13.1982 9.48925 12.8751C9.78644 12.0224 10.4497 11.4021 11.3068 11.1868C11.6385 11.1007 12.2156 11.105 12.5515 11.1911C13.2277 11.3677 13.8867 11.8975 14.1839 12.5047C14.4294 13.0087 14.4725 13.28 14.4725 14.4041V15.3861H14.9032H15.3339V12.8019V10.2177H11.9098H8.48572V12.8019ZM11.2293 12.0827C10.8847 12.2377 10.51 12.6081 10.355 12.9441L10.2301 13.2111L10.2171 14.3008L10.2042 15.3861L11.9184 15.3775L13.6326 15.3646L13.6455 14.5463C13.6584 13.6073 13.6154 13.2369 13.4474 12.8967C13.245 12.4746 12.7755 12.0999 12.306 11.9793C12.0433 11.9104 11.5006 11.9664 11.2293 12.0827ZM6.64231 13.7968C6.34082 13.9476 6.19008 14.1026 6.03933 14.4343C5.94458 14.641 5.93166 14.7401 5.91012 15.3474C5.89289 15.8857 5.90151 16.0322 5.94458 16.0322C5.97473 16.0322 6.09102 15.9762 6.203 15.9073C6.50449 15.7221 6.77583 15.6144 7.23668 15.4981L7.64585 15.3947L7.65877 14.529L7.66738 13.6633H7.28837C6.94811 13.6633 6.87489 13.6762 6.64231 13.7968ZM8.49433 16.6438L8.50725 17.0874L11.9184 17.1003L15.3339 17.1089V16.6567V16.2044H11.9098H8.48141L8.49433 16.6438ZM7.22376 16.3509C6.40973 16.6265 5.78952 17.1391 4.69554 18.4441C3.6274 19.7189 3.29145 20.0678 2.69278 20.5201C2.19747 20.8948 1.57726 21.1833 1.09918 21.2652C0.776152 21.3212 0.797688 21.2867 0.806302 21.7475L0.814916 22.1696L1.02165 22.1567C1.53849 22.1309 2.37836 21.7906 2.94689 21.3771C3.55849 20.9335 3.9978 20.477 5.02718 19.2193C5.65601 18.4484 6.09532 17.9875 6.47434 17.6947C6.78445 17.4578 7.33574 17.1735 7.53817 17.1434C7.64154 17.1304 7.64585 17.1175 7.65877 16.7471C7.67169 16.3423 7.65877 16.2475 7.58124 16.2475C7.55109 16.2475 7.39174 16.2949 7.22376 16.3509ZM9.34712 18.3579V18.7886H11.9098H14.4725V18.3579V17.9272H11.9098H9.34712V18.3579ZM9.34712 20.0807V20.5114H11.9098H14.4725V20.0807V19.65H11.9098H9.34712V20.0807Z" fill="#EEF5FF"/>
</svg>
