<svg width="82" height="15" viewBox="0 0 82 15" fill="none" xmlns="http://www.w3.org/2000/svg">
  <path d="M52.7246 14.8307V0.44873H60.8676V1.33273H53.7446V6.73873H60.3576V7.62273H53.7446V13.9467H56.6006C58.4706 13.9467 60.3527 13.9481 60.3527 13.9481V14.8281C60.3527 14.8281 58.4706 14.8307 56.6006 14.8307H52.7246ZM61.0886 6.73873H64.7946V0.44873H65.8146V14.8307H64.7946V7.62273H61.0886V6.73873Z" fill="#FFBC42"/>
  <path d="M36.8359 4.61332C36.8359 2.13132 38.0769 0.27832 41.2559 0.27832C44.4349 0.27832 45.6759 2.13132 45.6759 4.61332V10.6653C45.6759 13.1473 44.4349 15.0003 41.2559 15.0003C38.0769 15.0003 36.8359 13.1473 36.8359 10.6653V4.61332ZM48.9909 14.8303V0.44832H50.0109V14.8303H48.9909ZM41.2559 14.1163C43.7719 14.1163 44.6559 12.6883 44.6559 10.6653V4.61332C44.6559 2.59032 43.7719 1.16232 41.2559 1.16232C38.7399 1.16232 37.8559 2.59032 37.8559 4.61332V10.6653C37.8559 12.6883 38.7399 14.1163 41.2559 14.1163Z" fill="#FFBC42"/>
  <path d="M20.9453 6.55173H27.1503V4.71573H21.1153V0.44873H22.1353V3.83173H34.2903V4.71573H28.1703V6.55173H34.3753V7.43573H20.9453V6.55173ZM21.1153 14.8307V11.3967H33.1853V9.88373H21.1153V8.99973H34.2053V12.2807H22.1353V13.9467H34.3753V14.8307H21.1153Z" fill="#FFBC42"/>
  <path d="M80.5994 6.12673V0.44873H81.6194V7.01073H68.5294V0.44873H69.5494V6.12673H80.5994ZM76.6244 14.8307V9.90073H73.3227V13.8981H72.3027V9.89943L71.5244 9.90073V14.8307H70.5044V9.90073H68.3594V9.01673H81.7894V9.90073L79.4427 9.89943V13.8981H78.4227V9.90073H77.6444V14.8307H76.6244Z" fill="#73D2DE"/>
  <path d="M76.1895 3.07339C76.1895 2.65203 75.8475 2.31006 75.4261 2.31006L74.6628 2.31006C74.2414 2.31006 73.8995 2.65203 73.8995 3.07339C73.8995 3.49475 74.2414 3.83673 74.6628 3.83673L75.4261 3.83673C75.8475 3.83673 76.1895 3.49475 76.1895 3.07339Z" fill="#EEF5FF"/>
  <path d="M7.82131 0.523377C7.68317 0.57271 6.0749 1.50018 4.24956 2.60525C1.54607 4.2234 0.885004 4.6674 0.707403 4.9634C0.480469 5.3186 0.480469 5.32847 0.480469 9.46262C0.480469 13.1922 0.500202 13.6362 0.648203 13.9125C1.02314 14.5933 1.71381 14.9387 2.44395 14.8005C2.63141 14.7611 4.13115 13.8829 5.81836 12.8173L8.86718 10.8933L8.91651 12.245C8.97571 13.7645 9.08425 14.1098 9.70585 14.5144C10.0216 14.7315 10.1005 14.7413 12.4685 14.7413C14.8365 14.7413 14.9155 14.7315 15.2411 14.5144C15.4187 14.396 15.6752 14.1394 15.7936 13.9618L16.0206 13.6264V9.49223C16.0206 5.06207 16.0206 5.07193 15.5075 4.61807C15.1128 4.253 9.02505 0.641777 8.64025 0.533244C8.22584 0.42471 8.17651 0.42471 7.82131 0.523377ZM11.4325 3.65113C13.1197 4.65753 14.5504 5.53567 14.6195 5.585C14.7083 5.66394 14.7379 6.55194 14.7379 9.41329C14.7379 11.4656 14.7083 13.212 14.6787 13.3008C14.6293 13.4389 14.3432 13.4586 12.508 13.4586C10.5248 13.4586 10.3965 13.4488 10.2979 13.2712C10.2387 13.1626 10.1992 12.3832 10.1992 11.436C10.1992 9.69943 10.1499 9.47249 9.68612 9.05809C9.56772 8.93969 8.46264 8.33782 7.23917 7.70635C3.63782 5.86127 2.63141 5.3186 2.59195 5.24954C2.54261 5.16074 8.01864 1.82578 8.22584 1.82578C8.31464 1.81592 9.75518 2.64472 11.4325 3.65113ZM3.77595 7.40048C4.78236 7.93328 6.17357 8.65355 6.86424 9.00876C7.55491 9.36396 8.12718 9.68956 8.12718 9.72903C8.12718 9.75863 7.67331 10.0744 7.12077 10.4296C6.55837 10.7848 5.21649 11.6234 4.14102 12.3042C2.53275 13.3205 2.14794 13.5277 1.99994 13.4488C1.82234 13.36 1.81248 13.1626 1.81248 9.90663C1.81248 8.00235 1.84208 6.45328 1.87168 6.45328C1.91114 6.45328 2.76955 6.87754 3.77595 7.40048Z" fill="#EEF5FF"/>
</svg>
