<svg width="36" height="36" viewBox="0 0 36 36" fill="none" xmlns="http://www.w3.org/2000/svg">
  <g clip-path="url(#clip0_2405_187)">
    <path d="M16.5 0V4.5H19.5V0H16.5ZM6.33398 4.21289L4.21289 6.33398L7.39453 9.51562L9.51562 7.39453L6.33398 4.21289ZM29.666 4.21289L26.4844 7.39453L28.6055 9.51562L31.7871 6.33398L29.666 4.21289ZM18 7.5C12.2188 7.5 7.5 12.2188 7.5 18C7.5 23.7812 12.2188 28.5 18 28.5C23.7812 28.5 28.5 23.7812 28.5 18C28.5 12.2188 23.7812 7.5 18 7.5ZM18 10.5C22.1599 10.5 25.5 13.8401 25.5 18C25.5 22.1599 22.1599 25.5 18 25.5C13.8401 25.5 10.5 22.1599 10.5 18C10.5 13.8401 13.8401 10.5 18 10.5ZM0 16.5V19.5H4.5V16.5H0ZM31.5 16.5V19.5H36V16.5H31.5ZM7.39453 26.4844L4.21289 29.666L6.33398 31.7871L9.51562 28.6055L7.39453 26.4844ZM28.6055 26.4844L26.4844 28.6055L29.666 31.7871L31.7871 29.666L28.6055 26.4844ZM16.5 31.5V36H19.5V31.5H16.5Z" fill="#CBCBCB"/>
  </g>
  <defs>
    <clipPath id="clip0_2405_187">
      <rect width="36" height="36" fill="white"/>
    </clipPath>
  </defs>
</svg>
