<svg width="36" height="36" viewBox="0 0 36 36" fill="none" xmlns="http://www.w3.org/2000/svg">
  <path d="M6 4.5L4.78125 7.78125L1.5 9L4.78125 10.2188L6 13.5L7.21875 10.2188L10.5 9L7.21875 7.78125L6 4.5ZM21.0176 7.5C17.9035 7.46578 14.8702 8.66101 12.5156 11.0156C7.84562 15.6856 7.84562 23.3144 12.5156 27.9844C17.1856 32.6544 24.8144 32.6544 29.4844 27.9844C31.3851 26.0837 32.5216 23.6792 32.8652 21.2051L33.0996 19.5205L31.3975 19.5C29.1324 19.4743 26.8789 18.6054 25.1367 16.8633C23.0908 14.8174 22.3384 11.7822 22.4971 9.08789L22.5908 7.51758L21.0176 7.5ZM19.7197 10.7344C19.8906 13.6279 20.6904 16.6592 23.0156 18.9844C24.8361 20.8048 27.1311 21.7131 29.4873 22.1191C29.076 23.4774 28.4407 24.7859 27.3633 25.8633C23.8433 29.3833 18.1567 29.3833 14.6367 25.8633C11.1167 22.3433 11.1167 16.6567 14.6367 13.1367C16.1122 11.6612 17.8675 10.9816 19.7197 10.7344Z" fill="#CBCBCB"/>
</svg>
