<?xml version="1.0" standalone="no"?>
<!DOCTYPE svg PUBLIC "-//W3C//DTD SVG 20010904//EN"
 "http://www.w3.org/TR/2001/REC-SVG-20010904/DTD/svg10.dtd">
<svg version="1.0" xmlns="http://www.w3.org/2000/svg"
 width="1088.000000pt" height="1088.000000pt" viewBox="0 0 1088.000000 1088.000000"
 preserveAspectRatio="xMidYMid meet">
<metadata>
Created by potrace 1.14, written by Peter Selinger 2001-2017
</metadata>
<g transform="translate(0.000000,1088.000000) scale(0.100000,-0.100000)"
fill="#000000" stroke="none">
<path d="M5160 10004 c-145 -28 -209 -59 -695 -339 -495 -284 -800 -465 -1720
-1018 -1941 -1167 -2209 -1350 -2333 -1599 -48 -95 -66 -180 -83 -393 -17
-196 -24 -3723 -10 -4335 18 -771 34 -860 188 -1065 206 -275 484 -427 808
-442 145 -7 230 5 322 46 169 74 799 440 1458 846 360 222 613 381 1830 1150
695 439 744 469 749 464 2 -2 11 -220 20 -484 33 -924 57 -1166 140 -1387 45
-119 89 -189 171 -272 75 -75 253 -203 329 -236 73 -31 180 -49 361 -60 223
-13 2345 -13 2568 0 326 20 416 54 624 239 104 93 169 169 281 334 l83 122 -4
2380 c-3 1599 -8 2431 -15 2535 -26 362 -50 501 -108 620 -49 100 -175 225
-339 336 -678 459 -3447 2104 -4120 2448 -81 42 -151 69 -215 85 -91 23 -237
35 -290 25z m185 -903 c300 -141 1708 -968 3315 -1946 694 -423 698 -425 710
-455 38 -96 51 -404 59 -1445 8 -1006 -2 -2846 -18 -3225 -11 -262 -14 -272
-85 -297 -74 -25 -196 -33 -661 -44 -505 -12 -1575 -5 -1785 12 -206 16 -275
47 -299 135 -32 122 -49 466 -61 1304 -12 765 -21 875 -84 1044 -32 85 -79
158 -155 238 -70 75 -153 135 -336 240 -357 205 -795 438 -1705 906 -1693 870
-2465 1278 -2560 1353 l-25 19 35 31 c80 70 585 395 1295 834 318 197 1201
729 1437 866 644 374 796 457 843 458 11 1 47 -12 80 -28z m-3629 -3181 c275
-137 657 -332 849 -433 193 -101 454 -238 580 -304 127 -66 493 -257 815 -423
913 -472 1240 -653 1240 -689 0 -23 -446 -326 -885 -601 -143 -90 -357 -224
-475 -298 -118 -75 -251 -158 -295 -185 -44 -28 -208 -131 -365 -230 -1415
-894 -1694 -1057 -1839 -1074 -40 -5 -51 -2 -78 21 -62 52 -79 141 -93 497
-12 305 -12 2765 0 3339 11 517 17 630 35 630 7 0 237 -112 511 -250z"/>
</g>
</svg>
