<?xml version="1.0" standalone="no"?>
<!DOCTYPE svg PUBLIC "-//W3C//DTD SVG 20010904//EN"
 "http://www.w3.org/TR/2001/REC-SVG-20010904/DTD/svg10.dtd">
<svg version="1.0" xmlns="http://www.w3.org/2000/svg"
 width="608.000000pt" height="608.000000pt" viewBox="0 0 608.000000 608.000000"
 preserveAspectRatio="xMidYMid meet">
<metadata>
Created by potrace 1.14, written by Peter Selinger 2001-2017
</metadata>
<g transform="translate(0.000000,608.000000) scale(0.100000,-0.100000)"
fill="#000000" stroke="none">
<path d="M2849 5843 c-41 -13 -75 -28 -77 -34 -2 -5 -9 -9 -15 -9 -19 -1 -480
-235 -483 -245 -1 -6 168 -95 377 -198 l380 -188 381 191 c210 105 383 192
385 194 2 2 -119 65 -269 139 -231 114 -293 143 -311 147 -1 0 -23 7 -49 15
-76 22 -230 17 -319 -12z"/>
<path d="M1115 4984 c-259 -130 -472 -237 -474 -239 -1 -2 170 -91 380 -197
l384 -193 478 239 c262 132 477 242 477 245 0 8 -752 382 -765 381 -5 0 -221
-107 -480 -236z"/>
<path d="M4069 5028 l-377 -190 478 -239 c263 -131 481 -239 486 -239 11 0
754 373 760 381 5 9 -936 479 -956 478 -8 -1 -184 -87 -391 -191z"/>
<path d="M2551 4268 c-265 -132 -480 -242 -479 -243 2 -2 218 -110 481 -242
l478 -240 477 240 c262 131 479 240 481 242 2 3 -32 21 -75 42 -44 21 -90 45
-104 53 -14 8 -27 15 -30 15 -6 1 -411 204 -450 225 -14 8 -27 15 -30 15 -3 0
-64 30 -136 67 l-131 67 -482 -241z"/>
<path d="M374 2883 c2 -1229 3 -1332 20 -1383 34 -108 87 -194 169 -273 53
-50 99 -77 378 -217 l319 -161 -1 1461 -1 1461 -439 219 c-241 121 -441 220
-443 220 -3 0 -3 -597 -2 -1327z"/>
<path d="M5240 3990 l-435 -219 -1 -1453 c0 -799 1 -1456 2 -1459 5 -10 593
289 646 328 69 50 133 127 172 208 69 141 65 51 66 1503 0 721 -3 1312 -7
1311 -5 -1 -204 -99 -443 -219z"/>
<path d="M1850 2012 l0 -1457 443 -221 442 -222 0 1460 0 1460 -435 219 c-239
120 -438 218 -442 218 -5 1 -8 -655 -8 -1457z"/>
<path d="M4063 3400 c-73 -39 -133 -66 -133 -62 0 4 -4 3 -8 -3 -9 -12 -298
-158 -308 -155 -4 1 -10 -2 -13 -7 -3 -4 -64 -37 -136 -72 -71 -36 -132 -66
-134 -68 -10 -7 -6 -2913 4 -2913 6 0 205 98 444 218 l434 217 1 1458 c1 965
-2 1457 -9 1457 -5 -1 -70 -32 -142 -70z"/>
</g>
</svg>
