<svg width="36" height="36" viewBox="0 0 36 36" fill="none" xmlns="http://www.w3.org/2000/svg">
  <path d="M7.39423 26.4853C7.25169 26.6238 7.13812 26.7893 7.0601 26.9722C6.98208 27.155 6.94118 27.3515 6.93978 27.5503C6.93837 27.7491 6.97649 27.9462 7.05191 28.1301C7.12734 28.314 7.23856 28.4811 7.37913 28.6217C7.51969 28.7622 7.68679 28.8735 7.87071 28.9489C8.05464 29.0243 8.25172 29.0624 8.4505 29.061C8.64928 29.0596 8.8458 29.0187 9.02864 28.9407C9.21148 28.8627 9.37699 28.7491 9.51555 28.6066L28.6074 9.51469C28.75 9.37613 28.8636 9.21062 28.9416 9.02778C29.0196 8.84494 29.0605 8.64842 29.0619 8.44964C29.0633 8.25085 29.0252 8.05377 28.9498 7.86985C28.8743 7.68593 28.7631 7.51883 28.6225 7.37826C28.482 7.2377 28.3149 7.12647 28.131 7.05105C27.947 6.97563 27.75 6.93751 27.5512 6.93892C27.3524 6.94032 27.1559 6.98122 26.973 7.05924C26.7902 7.13725 26.6247 7.25083 26.4861 7.39337L7.39423 26.4853Z" fill="#EE9B00"/>
  <path d="M9.51511 7.39338C9.37655 7.25084 9.21104 7.13726 9.0282 7.05925C8.84536 6.98123 8.64884 6.94033 8.45006 6.93892C8.25128 6.93752 8.0542 6.97564 7.87027 7.05106C7.68635 7.12648 7.51925 7.23771 7.37869 7.37827C7.23812 7.51884 7.1269 7.68593 7.05147 7.86986C6.97605 8.05378 6.93793 8.25086 6.93934 8.44964C6.94075 8.64843 6.98164 8.84495 7.05966 9.02779C7.13768 9.21063 7.25125 9.37614 7.39379 9.5147L26.4857 28.6066C26.6242 28.7491 26.7897 28.8627 26.9726 28.9407C27.1554 29.0187 27.3519 29.0596 27.5507 29.061C27.7495 29.0624 27.9466 29.0243 28.1305 28.9489C28.3144 28.8735 28.4815 28.7623 28.6221 28.6217C28.7627 28.4811 28.8739 28.314 28.9493 28.1301C29.0247 27.9462 29.0629 27.7491 29.0614 27.5503C29.06 27.3515 29.0191 27.155 28.9411 26.9722C28.8631 26.7893 28.7495 26.6238 28.607 26.4853L9.51511 7.39338Z" fill="#EE9B00"/>
</svg>
