<svg width="24" height="24" viewBox="0 0 24 24" fill="none" xmlns="http://www.w3.org/2000/svg">
  <path d="M12.0006 1.01562C11.6075 1.01562 11.2144 1.15881 10.9284 1.44531L1.44595 10.9277C0.853953 11.5197 0.853953 12.4813 1.44595 13.0723L10.9284 22.5566C11.2144 22.8426 11.5956 23 12.0006 23C12.4056 23 12.7859 22.8426 13.0729 22.5566L22.5573 13.0723C23.1493 12.4803 23.1493 11.5187 22.5573 10.9277L13.0729 1.44531C12.7864 1.15881 12.3938 1.01562 12.0006 1.01562ZM12.0006 3.19922L20.8014 12L12.0006 20.8008L3.19986 12L12.0006 3.19922ZM11.0006 7V13H13.0006V7H11.0006ZM11.0006 15V17H13.0006V15H11.0006Z" fill="#EE9B00"/>
</svg>
