<svg width="24" height="24" viewBox="0 0 24 24" fill="none" xmlns="http://www.w3.org/2000/svg">
  <path d="M21.991 5C21.991 3.9 21.101 3 20.001 3H4.00098C2.90098 3 2.00098 3.9 2.00098 5V17C2.00098 18.1 2.90098 19 4.00098 19H18.001L20.79 21.789C21.237 22.236 22 21.919 22 21.287L21.991 5ZM13 16H7.99998C7.44798 16 6.99998 15.552 6.99998 15C6.99998 14.448 7.44798 14 7.99998 14H13C13.552 14 14 14.448 14 15C14 15.552 13.552 16 13 16ZM16 12H7.99998C7.44798 12 6.99998 11.552 6.99998 11C6.99998 10.448 7.44798 10 7.99998 10H16C16.552 10 17 10.448 17 11C17 11.552 16.552 12 16 12ZM16 8H7.99998C7.44798 8 6.99998 7.552 6.99998 7C6.99998 6.448 7.44798 6 7.99998 6H16C16.552 6 17 6.448 17 7C17 7.552 16.552 8 16 8Z" fill="gray"/>
</svg>
