<svg width="52" height="52" viewBox="0 0 52 52" fill="none" xmlns="http://www.w3.org/2000/svg">
  <path d="M12.4999 15.5C12.3011 15.4972 12.1038 15.5339 11.9193 15.6081C11.7349 15.6822 11.567 15.7922 11.4254 15.9318C11.2839 16.0714 11.1715 16.2377 11.0947 16.421C11.018 16.6044 10.9785 16.8012 10.9785 17C10.9785 17.1988 11.018 17.3956 11.0947 17.579C11.1715 17.7624 11.2839 17.9287 11.4254 18.0683C11.567 18.2078 11.7349 18.3179 11.9193 18.392C12.1038 18.4661 12.3011 18.5028 12.4999 18.5H39.4999C39.6986 18.5028 39.896 18.4661 40.0804 18.392C40.2649 18.3179 40.4328 18.2078 40.5743 18.0683C40.7159 17.9287 40.8283 17.7624 40.905 17.579C40.9817 17.3956 41.0212 17.1988 41.0212 17C41.0212 16.8012 40.9817 16.6044 40.905 16.421C40.8283 16.2377 40.7159 16.0714 40.5743 15.9318C40.4328 15.7922 40.2649 15.6822 40.0804 15.6081C39.896 15.5339 39.6986 15.4972 39.4999 15.5H12.4999ZM12.4999 24.5C12.3011 24.4972 12.1038 24.5339 11.9193 24.6081C11.7349 24.6822 11.567 24.7922 11.4254 24.9318C11.2839 25.0714 11.1715 25.2377 11.0947 25.421C11.018 25.6044 10.9785 25.8012 10.9785 26C10.9785 26.1988 11.018 26.3956 11.0947 26.579C11.1715 26.7624 11.2839 26.9287 11.4254 27.0683C11.567 27.2078 11.7349 27.3179 11.9193 27.392C12.1038 27.4661 12.3011 27.5028 12.4999 27.5H39.4999C39.6986 27.5028 39.896 27.4661 40.0804 27.392C40.2649 27.3179 40.4328 27.2078 40.5743 27.0683C40.7159 26.9287 40.8283 26.7624 40.905 26.579C40.9817 26.3956 41.0212 26.1988 41.0212 26C41.0212 25.8012 40.9817 25.6044 40.905 25.421C40.8283 25.2377 40.7159 25.0714 40.5743 24.9318C40.4328 24.7922 40.2649 24.6822 40.0804 24.6081C39.896 24.5339 39.6986 24.4972 39.4999 24.5H12.4999ZM12.4999 33.5C12.3011 33.4972 12.1038 33.5339 11.9193 33.6081C11.7349 33.6822 11.567 33.7922 11.4254 33.9318C11.2839 34.0714 11.1715 34.2377 11.0947 34.4211C11.018 34.6044 10.9785 34.8012 10.9785 35C10.9785 35.1988 11.018 35.3956 11.0947 35.579C11.1715 35.7624 11.2839 35.9287 11.4254 36.0683C11.567 36.2078 11.7349 36.3179 11.9193 36.392C12.1038 36.4661 12.3011 36.5028 12.4999 36.5H39.4999C39.6986 36.5028 39.896 36.4661 40.0804 36.392C40.2649 36.3179 40.4328 36.2078 40.5743 36.0683C40.7159 35.9287 40.8283 35.7624 40.905 35.579C40.9817 35.3956 41.0212 35.1988 41.0212 35C41.0212 34.8012 40.9817 34.6044 40.905 34.4211C40.8283 34.2377 40.7159 34.0714 40.5743 33.9318C40.4328 33.7922 40.2649 33.6822 40.0804 33.6081C39.896 33.5339 39.6986 33.4972 39.4999 33.5H12.4999Z" fill="#000000"/>
</svg>
