<svg width="24" height="24" viewBox="0 0 24 24" fill="none" xmlns="http://www.w3.org/2000/svg">
  <path d="M16.6665 5C16.0225 5 15.4998 5.52267 15.4998 6.16667V17.8333C15.4998 18.4773 16.0225 19 16.6665 19C17.3105 19 17.8332 18.4773 17.8332 17.8333V6.16667C17.8332 5.52267 17.3105 5 16.6665 5ZM7.39242 6.08464C6.76619 6.05417 6.1665 6.54168 6.1665 7.2513V16.7487C6.1665 17.6949 7.23187 18.2472 8.00537 17.7012L14.7342 12.9525C15.3922 12.4881 15.3922 11.5119 14.7342 11.0475L8.00537 6.29883C7.812 6.16233 7.60116 6.09479 7.39242 6.08464Z" fill="#EEF5FF"/>
</svg>
