<svg width="24" height="24" viewBox="0 0 24 24" fill="none" xmlns="http://www.w3.org/2000/svg">
  <path d="M7.33301 19C7.97701 19 8.49967 18.4773 8.49967 17.8333L8.49967 6.16667C8.49967 5.52267 7.97701 5 7.33301 5C6.68901 5 6.16634 5.52267 6.16634 6.16667L6.16634 17.8333C6.16634 18.4773 6.68901 19 7.33301 19ZM16.6071 17.9154C17.2333 17.9458 17.833 17.4583 17.833 16.7487L17.833 7.2513C17.833 6.30514 16.7676 5.75283 15.9941 6.29883L9.2653 11.0475C8.6073 11.5119 8.6073 12.4881 9.2653 12.9525L15.9941 17.7012C16.1875 17.8377 16.3984 17.9052 16.6071 17.9154Z" fill="#EEF5FF"/>
</svg>
