<svg width="24" height="24" viewBox="0 0 24 24" fill="none" xmlns="http://www.w3.org/2000/svg">
  <path d="M17.906 1.00444C17.8086 1.01366 17.7107 1.0382 17.617 1.0767C17.243 1.2317 16.9998 1.59653 16.9998 2.00053V4.00053H3.99979C2.90673 4.00053 1.99979 4.90747 1.99979 6.00053V11.0005C1.99792 11.133 2.0224 11.2646 2.07181 11.3876C2.12123 11.5105 2.19459 11.6225 2.28763 11.7168C2.38068 11.8112 2.49155 11.8861 2.61381 11.9373C2.73606 11.9884 2.86727 12.0148 2.99979 12.0148C3.13232 12.0148 3.26352 11.9884 3.38578 11.9373C3.50804 11.8861 3.61891 11.8112 3.71195 11.7168C3.805 11.6225 3.87836 11.5105 3.92777 11.3876C3.97719 11.2646 4.00167 11.133 3.99979 11.0005V6.00053H16.9998V8.00053C16.9998 8.40453 17.243 8.76936 17.617 8.92436C17.741 8.97536 17.8708 9.00053 17.9998 9.00053C18.2598 9.00053 18.5158 8.89856 18.7068 8.70756L21.7068 5.70756C22.0978 5.31656 22.0978 4.6845 21.7068 4.2935L18.7068 1.2935C18.4923 1.079 18.1983 0.976782 17.906 1.00444ZM20.9842 11.9869C20.7193 11.991 20.4669 12.1001 20.2823 12.2901C20.0978 12.4801 19.9962 12.7356 19.9998 13.0005V18.0005H6.99979V16.0005C6.99979 15.5965 6.75661 15.2317 6.38261 15.0767C6.25861 15.0257 6.12879 15.0005 5.99979 15.0005C5.73979 15.0005 5.48376 15.1025 5.29276 15.2935L2.29276 18.2935C1.90176 18.6845 1.90176 19.3176 2.29276 19.7076L5.29276 22.7076C5.57876 22.9936 6.00761 23.0784 6.38261 22.9244C6.75661 22.7694 6.99979 22.4055 6.99979 22.0005V20.0005H19.9998C21.0929 20.0005 21.9998 19.0936 21.9998 18.0005V13.0005C22.0016 12.8667 21.9766 12.7339 21.9262 12.61C21.8758 12.4861 21.801 12.3735 21.7063 12.279C21.6116 12.1845 21.4989 12.1099 21.3748 12.0597C21.2508 12.0095 21.118 11.9848 20.9842 11.9869Z" fill="white"/>
</svg>
