<svg width="32" height="33" viewBox="0 0 32 33" fill="none" xmlns="http://www.w3.org/2000/svg">
  <path d="M9.89453 26.4233C8.8724 26.4233 8.10417 26.1694 7.58984 25.6616C7.08203 25.1603 6.82812 24.4051 6.82812 23.396V13.6499C6.82812 12.6408 7.08203 11.8856 7.58984 11.3843C8.10417 10.8765 8.8724 10.6226 9.89453 10.6226H12.6191V12.1948H9.91406C9.42578 12.1948 9.05143 12.325 8.79102 12.5854C8.5306 12.8459 8.40039 13.23 8.40039 13.7378V23.3081C8.40039 23.8159 8.5306 24.2 8.79102 24.4604C9.05143 24.7209 9.42578 24.8511 9.91406 24.8511H21.0664C21.5482 24.8511 21.9225 24.7209 22.1895 24.4604C22.4564 24.2 22.5898 23.8159 22.5898 23.3081V13.7378C22.5898 13.23 22.4564 12.8459 22.1895 12.5854C21.9225 12.325 21.5482 12.1948 21.0664 12.1948H18.3711V10.6226H21.0957C22.1178 10.6226 22.8828 10.8765 23.3906 11.3843C23.9049 11.8921 24.1621 12.6473 24.1621 13.6499V23.396C24.1621 24.3986 23.9049 25.1538 23.3906 25.6616C22.8828 26.1694 22.1178 26.4233 21.0957 26.4233H9.89453ZM15.4902 18.7769C15.2819 18.7769 15.0996 18.702 14.9434 18.5522C14.7936 18.4025 14.7188 18.2235 14.7188 18.0151V7.98584L14.7773 6.521L14.1133 7.21436L12.6387 8.79639C12.502 8.95264 12.3229 9.03076 12.1016 9.03076C11.8932 9.03076 11.724 8.96566 11.5938 8.83545C11.4635 8.70524 11.3984 8.53923 11.3984 8.3374C11.3984 8.15511 11.4733 7.98584 11.623 7.82959L14.9238 4.646C15.028 4.54834 15.1224 4.47998 15.207 4.44092C15.2982 4.40186 15.3926 4.38232 15.4902 4.38232C15.5944 4.38232 15.6888 4.40186 15.7734 4.44092C15.8646 4.47998 15.959 4.54834 16.0566 4.646L19.3574 7.82959C19.5137 7.98584 19.5918 8.15511 19.5918 8.3374C19.5918 8.53923 19.5234 8.70524 19.3867 8.83545C19.25 8.96566 19.0807 9.03076 18.8789 9.03076C18.6641 9.03076 18.4883 8.95264 18.3516 8.79639L16.8672 7.21436L16.2129 6.521L16.2715 7.98584V18.0151C16.2715 18.2235 16.1934 18.4025 16.0371 18.5522C15.8874 18.702 15.7051 18.7769 15.4902 18.7769Z" fill="black"/>
</svg>
