<svg width="24" height="25" viewBox="0 0 24 25" fill="none" xmlns="http://www.w3.org/2000/svg">
  <path d="M12.0009 2.54736C10.3439 2.54736 9.00086 3.89036 9.00086 5.54736V11.5474C9.00086 13.2044 10.3439 14.5474 12.0009 14.5474C13.6579 14.5474 15.0009 13.2044 15.0009 11.5474V5.54736C15.0009 3.89036 13.6579 2.54736 12.0009 2.54736ZM6.08875 11.5474C5.48275 11.5474 4.99466 12.0851 5.09266 12.6841C5.58253 15.6838 7.98199 18.0364 11.0009 18.4692V20.5474C11.0009 21.0994 11.4489 21.5474 12.0009 21.5474C12.5529 21.5474 13.0009 21.0994 13.0009 20.5474V18.4692C16.0197 18.0364 18.4192 15.6838 18.9091 12.6841C19.0071 12.0851 18.519 11.5474 17.913 11.5474C17.419 11.5474 17.0116 11.9109 16.9286 12.3989C16.5236 14.7539 14.4719 16.5474 12.0009 16.5474C9.52986 16.5474 7.47813 14.7539 7.07313 12.3989C6.99013 11.9109 6.58375 11.5474 6.08875 11.5474Z" fill="#1A0505"/>
</svg>
