<svg width="24" height="24" viewBox="0 0 24 24" fill="none" xmlns="http://www.w3.org/2000/svg">
  <path d="M6 2C5.20435 2 4.44129 2.31607 3.87868 2.87868C3.31607 3.44129 3 4.20435 3 5C3 5.79565 3.31607 6.55871 3.87868 7.12132C4.44129 7.68393 5.20435 8 6 8C6.79565 8 7.55871 7.68393 8.12132 7.12132C8.68393 6.55871 9 5.79565 9 5C9 4.20435 8.68393 3.44129 8.12132 2.87868C7.55871 2.31607 6.79565 2 6 2ZM11 4V6H21V4H11ZM6 9C4.35499 9 3 10.355 3 12C3 13.645 4.35499 15 6 15C7.64501 15 9 13.645 9 12C9 10.355 7.64501 9 6 9ZM6 11C6.56413 11 7 11.4359 7 12C7 12.5641 6.56413 13 6 13C5.43587 13 5 12.5641 5 12C5 11.4359 5.43587 11 6 11ZM11 11V13H21V11H11ZM6 16C4.35499 16 3 17.355 3 19C3 20.645 4.35499 22 6 22C7.64501 22 9 20.645 9 19C9 17.355 7.64501 16 6 16ZM6 18C6.56413 18 7 18.4359 7 19C7 19.5641 6.56413 20 6 20C5.43587 20 5 19.5641 5 19C5 18.4359 5.43587 18 6 18ZM11 18V20H21V18H11Z" fill="#ADADAD"/>
</svg>
