<svg width="24" height="25" viewBox="0 0 24 25" fill="none" xmlns="http://www.w3.org/2000/svg">
  <path d="M12 2.45312C6.486 2.45312 2 6.49013 2 11.4531C2 11.7741 2.02064 12.0893 2.05664 12.4023C2.65664 17.9293 8.32894 21.8306 9.46094 22.5566L11 23.5469V20.4043C12.508 20.5503 13.9563 20.3866 15.2793 19.9746L14.5859 19.2812L13.6133 18.3086C12.5363 18.4986 11.3843 18.5066 10.1973 18.2676L9 18.0254V19.7578C7.147 18.2728 4.40792 15.5446 4.04492 12.1836V12.1758C4.01692 11.9378 4 11.6981 4 11.4531C4 7.59413 7.589 4.45312 12 4.45312C16.411 4.45312 20 7.59413 20 11.4531C20 12.7701 19.5776 14.0045 18.8516 15.0625L20.2793 16.4902C21.3593 15.0462 22 13.3151 22 11.4531C22 6.49013 17.514 2.45312 12 2.45312ZM17.4141 16.4531L16 17.8672L18.5859 20.4531L16.0254 23.0137L17.4395 24.4277L20 21.8672L22.5859 24.4531L24 23.0391L21.4141 20.4531L24 17.8672L22.5859 16.4531L20 19.0391L17.4141 16.4531Z" fill="#1A0505"/>
</svg>
