<svg width="25" height="25" viewBox="0 0 25 25" fill="none" xmlns="http://www.w3.org/2000/svg">
  <path d="M13.0008 6.66675C12.7798 6.66675 12.5679 6.75455 12.4116 6.91083C12.2553 7.06711 12.1675 7.27907 12.1675 7.50008C12.1675 7.7211 12.2553 7.93306 12.4116 8.08934C12.5679 8.24562 12.7798 8.33341 13.0008 8.33341C13.2219 8.33341 13.4338 8.24562 13.5901 8.08934C13.7464 7.93306 13.8342 7.7211 13.8342 7.50008C13.8342 7.27907 13.7464 7.06711 13.5901 6.91083C13.4338 6.75455 13.2219 6.66675 13.0008 6.66675ZM12.9878 9.98869C12.7671 9.99214 12.5567 10.083 12.403 10.2414C12.2492 10.3998 12.1645 10.6127 12.1675 10.8334V17.155L10.2567 15.2442C10.179 15.1644 10.0862 15.1009 9.98358 15.0576C9.88098 15.0143 9.77074 14.9919 9.65937 14.9919C9.49359 14.992 9.33159 15.0415 9.19409 15.1341C9.05658 15.2267 8.94981 15.3582 8.88743 15.5118C8.82505 15.6653 8.80989 15.8341 8.84389 15.9963C8.8779 16.1586 8.95951 16.307 9.07832 16.4226L12.4116 19.7559C12.5679 19.9122 12.7799 19.9999 13.0008 19.9999C13.2218 19.9999 13.4337 19.9122 13.59 19.7559L16.9234 16.4226C17.0033 16.3458 17.0672 16.2538 17.1112 16.1521C17.1552 16.0503 17.1784 15.9408 17.1795 15.8299C17.1807 15.719 17.1597 15.6091 17.1178 15.5064C17.0759 15.4038 17.0139 15.3105 16.9355 15.2321C16.8571 15.1537 16.7638 15.0917 16.6612 15.0498C16.5585 15.0079 16.4486 14.9869 16.3377 14.988C16.2268 14.9892 16.1173 15.0124 16.0155 15.0564C15.9137 15.1004 15.8218 15.1642 15.745 15.2442L13.8342 17.155V10.8334C13.8357 10.7219 13.8148 10.6113 13.7728 10.508C13.7308 10.4047 13.6685 10.3109 13.5896 10.2321C13.5107 10.1534 13.4167 10.0912 13.3134 10.0494C13.21 10.0076 13.0993 9.98695 12.9878 9.98869Z" fill="white"/>
</svg>
