<svg width="25" height="25" viewBox="0 0 25 25" fill="none" xmlns="http://www.w3.org/2000/svg">
  <path d="M5.48641 19.1553C5.26568 19.1587 5.05533 19.2496 4.90154 19.408C4.74775 19.5663 4.66307 19.7793 4.66609 20V21.6667C4.66609 22.5775 5.42187 23.3333 6.33276 23.3333H19.6661C20.577 23.3333 21.3328 22.5775 21.3328 21.6667V20C21.3343 19.8896 21.3139 19.7799 21.2727 19.6775C21.2316 19.575 21.1704 19.4817 21.0929 19.4031C21.0154 19.3244 20.923 19.262 20.8211 19.2194C20.7192 19.1767 20.6099 19.1548 20.4994 19.1548C20.389 19.1548 20.2797 19.1767 20.1778 19.2194C20.0759 19.262 19.9835 19.3244 19.906 19.4031C19.8284 19.4817 19.7673 19.575 19.7261 19.6775C19.6849 19.7799 19.6645 19.8896 19.6661 20V21.6667H6.33276V20C6.33429 19.8885 6.31343 19.7778 6.27141 19.6745C6.2294 19.5713 6.16709 19.4775 6.08817 19.3987C6.00925 19.3199 5.91533 19.2578 5.81196 19.216C5.7086 19.1742 5.59789 19.1535 5.48641 19.1553Z" fill="white"/>
</svg>
