<svg width="24" height="24" viewBox="0 0 24 24" fill="none" xmlns="http://www.w3.org/2000/svg">
  <path d="M20 6H12L10.586 4.586C10.211 4.211 9.702 4 9.172 4H4C2.9 4 2 4.9 2 6V18C2 19.1 2.9 20 4 20H20C21.1 20 22 19.1 22 18V8C22 6.9 21.1 6 20 6ZM9 12C8.448 12 8 11.552 8 11C8 10.448 8.448 10 9 10C9.552 10 10 10.448 10 11C10 11.552 9.552 12 9 12ZM12 16C10.895 16 10 15.105 10 14H14C14 15.105 13.105 16 12 16ZM15 12C14.448 12 14 11.552 14 11C14 10.448 14.448 10 15 10C15.552 10 16 10.448 16 11C16 11.552 15.552 12 15 12Z" fill="#EE9B00"/>
</svg>
