<svg width="24" height="24" viewBox="0 0 24 24" fill="none" xmlns="http://www.w3.org/2000/svg">
  <path d="M17.5 19C20.538 19 23 16.538 23 13.5C23 12.672 22.328 12 21.5 12H12V13.5C12 16.538 14.462 19 17.5 19ZM19 6.5C19 3.462 16.538 1 13.5 1C12.672 1 12 1.672 12 2.5V12H13.5C16.538 12 19 9.538 19 6.5ZM6.5 5C3.462 5 1 7.462 1 10.5C1 11.328 1.672 12 2.5 12H12V10.5C12 7.462 9.538 5 6.5 5ZM5 17.5C5 20.538 7.462 23 10.5 23C11.328 23 12 22.328 12 21.5V12H10.5C7.462 12 5 14.462 5 17.5Z" fill="#EE9B00"/>
</svg>
